<svg id="图层_1" data-name="图层 1" xmlns="http://www.w3.org/2000/svg" viewBox="0 0 240 240">
  <g>
    <path d="M107.5,201.18l-25.45-14.7a40.18,40.18,0,0,1-8.71,2.42,83.87,83.87,0,0,1-8.65.9c-1.28.09-2.49.17-3.7.28a5.92,5.92,0,0,1-.7,0A6.38,6.38,0,0,1,53.85,183a.62.62,0,0,1,0-.13c0-.84.1-1.68.14-2.52.17-3.13.37-6.36.83-9.62l-1.39-.8a20,20,0,0,1-10-17.32V130.91l-.46-.26a6.19,6.19,0,0,1,.46-11.5V90.22a5,5,0,0,0-2.5-4.33L27.5,78.13A5,5,0,0,0,20,82.46v83.72A20,20,0,0,0,30,183.5l72.5,41.86A5,5,0,0,0,110,221V205.51A5,5,0,0,0,107.5,201.18Z" />
    <path d="M212.5,78.13l-13.43,7.76a5,5,0,0,0-2.5,4.33v62.43a20,20,0,0,1-10,17.32L132.5,201.18a5,5,0,0,0-2.5,4.33V221a5,5,0,0,0,7.5,4.33L210,183.5a20,20,0,0,0,10-17.32V82.46C220,77.7,216.63,75.75,212.5,78.13Z" />
    <path d="M37.5,60.81l13.44,7.76a5,5,0,0,0,5,0L110,37.36a20,20,0,0,1,20,0l36.57,21.11a19.2,19.2,0,0,1,.45-2,7.27,7.27,0,0,1,7-5.66,8,8,0,0,1,4.12,1.2,23.13,23.13,0,0,1,3.79,2.9,80.27,80.27,0,0,1,7.82,7.9A12.88,12.88,0,0,1,191,64.48a8.11,8.11,0,0,1,1,2.42l10.53-6.09a5,5,0,0,0,0-8.66L130,10.3a20,20,0,0,0-20,0L37.5,52.15A5,5,0,0,0,37.5,60.81Z" />
    <path d="M94.93,169a42.39,42.39,0,0,0,5.63.94c.92.09,1.84.16,2.77.19h1.1l.8,0c.32,0,.64,0,1,0,.48,0,1-.06,1.44-.09l.89-.08c.52-.05,1-.12,1.57-.19l.74-.1c.76-.11,1.52-.24,2.29-.38h0l.37-.07a31.23,31.23,0,0,0,4.76-1.31,25.05,25.05,0,0,0,5.16-2.62,24.22,24.22,0,0,0,2.4-1.8c.79-.67,1.54-1.37,2.28-2.09.36-.35.7-.74,1-1.11a40.46,40.46,0,0,0,3-3.43c.61-.81,1.2-1.64,1.75-2.5.26-.4.51-.8.75-1.21.08-.13.15-.26.22-.39.16-.28.32-.56.47-.84s.16-.32.24-.47.27-.52.4-.78l.23-.53c.11-.25.23-.5.33-.75s.14-.38.21-.57.19-.49.28-.74.11-.4.17-.6.16-.5.22-.75.09-.42.14-.63.11-.5.16-.75.06-.44.09-.66.08-.5.1-.76c0,0,0-.08,0-.12a5.79,5.79,0,0,0,0-.72,9.69,9.69,0,0,0-1.26-4.66,12.49,12.49,0,0,0-1.12-1.89l-.05-.06a.92.92,0,0,0-.22-.18,0,0,0,0,1,0,0,.63.63,0,0,0-.26-.07.44.44,0,0,0-.16,0h-.09l-.26.12h0c-.45.26-.9.51-1.36.74a20.11,20.11,0,0,1-3.27,1.31c-.35.11-.71.22-1.08.3h0c-.4.1-.81.18-1.21.25l-.4.07-.81.12-.47.05-.74.06-.49,0-.71,0h-.46c-.32,0-.65,0-1,0h-.34c-.43,0-.86-.08-1.28-.14l-.26,0q-.51-.07-1-.18l-.4-.09-.91-.23-.38-.11c-.41-.12-.82-.25-1.23-.4l-.07,0c-.39-.14-.77-.3-1.16-.47l-.37-.17q-.44-.19-.87-.42l-.38-.19c-.34-.18-.67-.37-1-.57l-.19-.11c-.35-.21-.7-.43-1-.66-.15-.1-.28-.22-.43-.32s-.59-.43-.88-.65-.43-.35-.64-.53c-.41-.34-.81-.69-1.19-1.05l0,0a24.5,24.5,0,0,1-5.42-8c-.06-.15-.13-.28-.18-.42-.12-.31-.23-.63-.34-.94s-.23-.6-.32-.91l-.12-.41-.15-.52-.15-.56c-.06-.22-.11-.45-.16-.67l-.12-.56-.12-.68c0-.19-.07-.37-.09-.56s-.06-.46-.09-.69l-.06-.55c0-.24,0-.48,0-.71l0-.54c0-.25,0-.5,0-.75s0-.25,0-.38h0v-.11c0-.28,0-.56.07-.83s0-.29,0-.43c0-.3.08-.61.13-.91,0-.12,0-.24.06-.35a20.93,20.93,0,0,1,1-3.78c.31-.8.66-1.59,1.05-2.36a25.26,25.26,0,0,1,1.27-2.27c.22-.37.46-.74.7-1.1.35-.52.71-1,1.08-1.52a33,33,0,0,1,5.87-5.94,38.47,38.47,0,0,1,3.7-2.61c.92-.57,1.86-1.11,2.81-1.6h0l.6-.29a28.78,28.78,0,0,1,5.23-2A25.64,25.64,0,0,1,128,88.3a1,1,0,0,0,.24,0l.1-.07a.27.27,0,0,0,.07-.12h0l-1.51-.55-.41-.13c-.45-.15-.89-.29-1.34-.42l-.23-.07c-.51-.15-1-.27-1.53-.39l-.39-.08c-.42-.09-.84-.16-1.25-.22h0l-.34,0q-.78-.11-1.56-.15h-.34l-.73,0-.64,0h-.28c-.52,0-1,.08-1.57.16l-.33,0c-.55.09-1.09.2-1.65.34a12.92,12.92,0,0,1,1.1-.91l1.11-.87c1-.79,2.1-1.54,3.18-2.24l.19-.11c.3-.19.59-.38.9-.56l.71-.41c.75-.43,1.52-.84,2.3-1.21l.35-.17.6-.27.55-.24.43-.17.75-.3c.66-.25,1.33-.47,2-.67l.38-.12.46-.12.77-.2.57-.13.68-.14c.22,0,.43-.08.65-.11l.63-.11.41,0,.88-.11H134l.37,0,.86-.07a1.39,1.39,0,0,0,1-.53,0,0,0,0,1,0,0c.18-.24.38-.46.58-.69l.14-.16v0c.12-.14.23-.29.36-.43q.59-.61,1.23-1.17l.17-.14a.2.2,0,0,0,.07-.2h0s0,0,0-.06a.27.27,0,0,0-.2-.11h-.13l-1.51-.31-1.44-.29h0a45.58,45.58,0,0,0-9.53-.88h-.11c-.53,0-1.06,0-1.58.07l-.65,0-1.08.09c-.32,0-.65.07-1,.12s-.59.07-.89.12l-.53.07-.5.09-.84.16-.83.17-.9.2-.8.2-.89.23-.79.23-.87.27-.78.25-.85.31-.76.28-.84.33-.74.31-.83.37-.72.34-.82.4-.71.36-.8.44-.68.38-.31.18h0c-.17.09-.33.19-.49.29l-.66.4-.79.51-.65.43c-.26.17-.52.36-.78.55l-.62.43-.79.6-.58.44-.82.67-.53.43-.88.77-.44.38q-.65.59-1.29,1.2A78.83,78.83,0,0,0,87.8,93.8c.72-1.54,1.4-3.1,2.18-4.62a59.56,59.56,0,0,1,3.19-5.47c.77-1.17,1.57-2.31,2.42-3.43.43-.56.86-1.11,1.3-1.66.89-1.09,1.82-2.15,2.78-3.19.56-.6,1.14-1.19,1.71-1.78l.44-.46c2.16-2.2,4.38-4.34,6.53-6.56l0,0,.05,0a18.32,18.32,0,0,0,2.36-2.85,10.9,10.9,0,0,0,.6-1.12,12.26,12.26,0,0,0,1-5.12c0-.1,0-.2,0-.3,0-.55,0-1.1-.1-1.65s-.12-1.11-.2-1.67a.33.33,0,0,0-.16-.24h-.06a.14.14,0,0,0-.12.06l0,0a.83.83,0,0,0-.07.13,6.63,6.63,0,0,1-.81,1.22c-.32.43-.65.84-1,1.24a22,22,0,0,1-2.22,2.2,28.12,28.12,0,0,1-2.45,1.9,39.8,39.8,0,0,1-4,2.42c-1.67.88-3.38,1.68-5.1,2.46s-3.43,1.57-5.1,2.44a45,45,0,0,0-5.82,3.56,43.3,43.3,0,0,0-3.51,2.82,42.11,42.11,0,0,0-3.22,3.19c-.52.56-1,1.13-1.51,1.72l-1.93,2.38c-.09-.45-.18-.87-.27-1.28s-.11-.58-.18-.86a22.54,22.54,0,0,0-2.53-6.7,15.11,15.11,0,0,0-2.74-3.39,2,2,0,0,1-.18-.21l-.13-.15-.07-.07-.11-.08-.07,0-.06,0-.09,0a.35.35,0,0,0-.09.07c-.11.14,0,.35.07.56a1.19,1.19,0,0,1,.07.23c.1.74.17,1.47.22,2.2,0,.55.07,1.1.08,1.65,0,1.1,0,2.2-.06,3.3q0,.83-.12,1.65c-.2,2.22-.49,4.43-.89,6.61-.2,1.1-.42,2.18-.68,3.27s-.55,2.15-.88,3.22c-.23.77-.49,1.54-.77,2.29-.83,2.26-1.82,4.47-2.74,6.7A40.54,40.54,0,0,0,61,105.53c-.3,1.17-.56,2.35-.76,3.54-.15.89-.28,1.79-.37,2.7s-.17,1.81-.21,2.73a43.72,43.72,0,0,0,.75,11.13c.13.64.28,1.28.46,1.92a.24.24,0,0,1,0,.12h0a.17.17,0,0,1-.11.11l-.25-.15c-.51-.36-1-.69-1.58-1a21.28,21.28,0,0,0-2.18-1.11c-.47-.21-.94-.4-1.42-.56a18.47,18.47,0,0,0-3.43-.83,13.26,13.26,0,0,0-1.39-.12h-.6a10,10,0,0,0-1.1,0h-.14c-.42,0-.83.11-1.24.19l-.35.08a13.71,13.71,0,0,0-1.35.39h0a2.5,2.5,0,0,0-.25.09.16.16,0,0,0-.09.07.22.22,0,0,0-.05.12c0,.15.13.2.25.25a.33.33,0,0,1,.12,0l1.09.61c.36.2.72.41,1.06.64a29,29,0,0,1,2.33,1.76c.75.62,1.46,1.27,2.15,1.94a45.74,45.74,0,0,1,3.87,4.34c.89,1.13,1.73,2.29,2.56,3.46.62.88,1.24,1.76,1.84,2.65.47.69.93,1.39,1.39,2.08.68,1,1.36,2,2.06,3,1.41,2,2.87,3.92,4.43,5.78h0c.77.93,1.58,1.83,2.4,2.71A56,56,0,0,0,82.66,164c.63.38,1.27.74,1.92,1.09.24.14.49.25.74.38,1,.52,2,1,3,1.43.51.22,1,.42,1.53.62,1,.36,1.92.67,2.9,1C93.5,168.66,94.21,168.86,94.93,169Z" />
    <path d="M140.61,179.05c1.25-.42,2.49-.9,3.71-1.42a44.16,44.16,0,0,0,5.43-2.8c.57-.36,1.14-.73,1.69-1.11s.89-.62,1.32-.95,1-.76,1.45-1.16.72-.61,1.07-.93.73-.69,1.09-1.05l1.07-1.08a15.15,15.15,0,0,1-.71,1.39c-.76,1.35-1.65,2.64-2.5,4h0l.22,0,.1,0a4,4,0,0,0,.45-.25c.56-.33,1.1-.68,1.64-1a52.3,52.3,0,0,0,4.66-3.44,59.75,59.75,0,0,0,5.62-5.3A62.52,62.52,0,0,0,171,159c.88-1.16,1.7-2.36,2.49-3.58a52.61,52.61,0,0,0,5.12-10.13c.38-1,.72-2,1-3q.57-1.84,1-3.72c.13-.62.25-1.24.35-1.87a37.18,37.18,0,0,0,.47-5.67,35.23,35.23,0,0,0-.2-3.83,36.84,36.84,0,0,0-1-5.56c-.16-.6-.34-1.2-.53-1.79a34.69,34.69,0,0,0-1.34-3.51c-.52-1.14-1.09-2.27-1.73-3.37a.47.47,0,0,0-.06-.09l0-.09a.28.28,0,0,1,0-.09.25.25,0,0,1,.07-.12c.63.55,1.23,1.11,1.8,1.71s1.11,1.21,1.63,1.85a29.29,29.29,0,0,1,2.78,4.19h0a1.55,1.55,0,0,1,0-.15.9.9,0,0,0,0-.16.08.08,0,0,0,0,0c-.06-2.3-.13-4.6-.42-6.89a56.68,56.68,0,0,0-2.05-9.68c-.32-1.06-.68-2.1-1.07-3.14-.54-1.43-1.15-2.84-1.82-4.2s-1.39-2.7-2.18-4q-.94-1.56-2-3.06c-.32-.45-.66-.9-1-1.35h0l-.09-.13c-.15-.19-.26-.27-.37-.27a.26.26,0,0,0-.1,0,.75.75,0,0,0-.25.19q-1.8,1.92-3.61,3.81a.72.72,0,0,0-.21.36.5.5,0,0,0,.22.36c2.1,1.83,4,3.85,6,5.81l1.27,1.24a.63.63,0,0,1,.22.35.42.42,0,0,1,0,.18,1,1,0,0,1-.15.2c-.3.33-.58.68-.86,1-.08.1-.16.18-.23.28l-.64.75c-.81,1-1.62,2-2.45,2.91s-1.67,1.9-2.55,2.82a6.18,6.18,0,0,1-2.52,1.68,4.92,4.92,0,0,1-1,.22c-.66.07-1.33.11-2,.13h-.47q-1,0-2,0c-.52,0-1,0-1.57,0l-1.56,0h-.22a.31.31,0,0,0-.1,0l-.06,0a.61.61,0,0,0-.07.1s0,0,0,0a.7.7,0,0,0-.06.23,5.39,5.39,0,0,1-.16.8,5.61,5.61,0,0,1-.39,1.06,6.22,6.22,0,0,1-.77,1.17c-.11.14-.21.28-.34.42a1.81,1.81,0,0,0-.18.23,1.65,1.65,0,0,0-.2.81c0,.32,0,.64,0,1a17.84,17.84,0,0,1-.12,2.92,9.62,9.62,0,0,1-1,3.34,6.93,6.93,0,0,1-3.18,3,8.91,8.91,0,0,1-1.17.47c-.5.16-1,.34-1.48.52l-.93.38a16.75,16.75,0,0,0-1.76.85,17.87,17.87,0,0,0-2.44,1.63,28.37,28.37,0,0,0-2.18,1.93c-.42.4-.83.82-1.23,1.24l-.15.14c-.17.18-.19.3-.14.41a.79.79,0,0,0,.12.15l.17.15h0a16.11,16.11,0,0,1,1.26,1.36,13.35,13.35,0,0,1,2.33,4.45c.05.16.11.3.16.46.1.36.19.73.26,1.1a13.67,13.67,0,0,1,.25,2.1.41.41,0,0,1,0,.11,18.54,18.54,0,0,1-.61,5.47q-.28,1.06-.63,2.1a30.08,30.08,0,0,1-1.69,3.95,34.84,34.84,0,0,1-2.19,3.67c-.4.59-.82,1.17-1.25,1.74-.87,1.15-1.8,2.26-2.77,3.34-.1.1-.22.19-.32.3a1.15,1.15,0,0,0-.22.38s0,.06,0,.11l1.24-.52h0l2.34-1,1.43-.61a.44.44,0,0,1,0,.15.38.38,0,0,1-.1.2l-.07.09c-.14.2-.3.39-.45.59a26.39,26.39,0,0,1-1.71,2.09,37.33,37.33,0,0,1-3.14,3c-.94.8-1.92,1.55-2.93,2.26a45.42,45.42,0,0,1-4.17,2.59c-1.26.69-2.56,1.32-3.9,1.91s-2.84,1.18-4.29,1.69A74.39,74.39,0,0,1,104.66,179a5.74,5.74,0,0,1-.6,0,1.57,1.57,0,0,0-.62.13.41.41,0,0,0,.27.24.61.61,0,0,0,.18.05h0l3.85.91c.94.22,1.89.41,2.83.58.72.13,1.43.24,2.14.34,2.15.3,4.31.49,6.47.6h0c.88.05,1.76.07,2.64.07h.62c.86,0,1.73,0,2.6-.08l.85,0c1-.07,2.07-.15,3.1-.26,1.33-.14,2.64-.33,3.93-.56A51.33,51.33,0,0,0,140.61,179.05Z" />
    <path d="M162.11,89.37c2.59-2.6,5.2-5.19,7.78-7.8,2.9-2.91,5.77-5.85,8.58-8.84a5.88,5.88,0,0,1,.65-.59,5.37,5.37,0,0,1,2.32-1,21.91,21.91,0,0,0,2.76-.6,7.26,7.26,0,0,0,.88-.34,2.71,2.71,0,0,0,.38-.22,1.83,1.83,0,0,0,.53-.55,2.29,2.29,0,0,0,.1-.23,1.65,1.65,0,0,0,.1-.44,1.83,1.83,0,0,0-.07-.56,2.72,2.72,0,0,0-.27-.58,7.85,7.85,0,0,0-.67-.93c-.56-.66-1.13-1.3-1.71-1.93s-1.18-1.24-1.79-1.85-1.23-1.19-1.85-1.78-1.26-1.17-1.9-1.74a22.63,22.63,0,0,0-2.07-1.71c-.24-.17-.49-.33-.75-.49a3.82,3.82,0,0,0-.51-.24l-.14,0a1.06,1.06,0,0,0-.34-.06l-.08,0h0a.91.91,0,0,0-.37.08l0,0a1,1,0,0,0-.28.2l-.08.1a1.85,1.85,0,0,0-.19.27s-.05.08-.07.13a4.36,4.36,0,0,0-.2.52,15.3,15.3,0,0,0-.36,1.63c-.09.54-.18,1.09-.31,1.63,0,.07,0,.14-.05.21-.05.28-.1.56-.16.84s-.07.3-.11.44a2.46,2.46,0,0,1-.72,1.18c-1.06,1-2,2-3,3-2.13,2.09-4.29,4.15-6.41,6.24l0,0c-.72.72-1.43,1.44-2.15,2.15q-2.56,2.55-5.12,5.11h0l-2.16,2.14a1,1,0,0,1-.2.18l-.06,0-.14.06-.12,0h-.06a.66.66,0,0,1-.2-.16h0c-.24-.26-.49-.5-.74-.75l-.73-.76c-.32-.32-.63-.65-.95-1l-4.45-4.59-.38-.4,0,0-.14-.12-.06,0a.28.28,0,0,0-.12,0h-.16a.89.89,0,0,0-.18.14l-.22.22-.41.42c-.85.87-1.69,1.73-2.56,2.58a3.23,3.23,0,0,0-.38.45l0,0a3.75,3.75,0,0,0-.24.44s0,.09-.07.14-.05.18-.08.28a2.6,2.6,0,0,0-.1.4s0,0,0,.08a3.88,3.88,0,0,0,0,.48c0,.36,0,.72,0,1.08,0,.95,0,1.91,0,2.86l.06,4.5h0c0,.64,0,1.29,0,1.94h0a1.69,1.69,0,0,1,0,.35.29.29,0,0,1,0,.08.61.61,0,0,1-.09.16l-.09,0A.31.31,0,0,1,139,92a.32.32,0,0,1-.14,0l-.24,0-1.24,0H135a6.78,6.78,0,0,1-.77.05h-.11c-.67.1-.8.43-1.14,1.58h0a1.13,1.13,0,0,1-.08.22h0a.53.53,0,0,1-.11.14l0,0-.11.06h-.27c-.63,0-1.26-.06-1.88-.06h-.72q-.72,0-1.44,0l-2.25.07h-.17a3.87,3.87,0,0,0-.48,0,2.64,2.64,0,0,0-1.17.43,2.05,2.05,0,0,0-.73.94s0,0,0,0a.45.45,0,0,0,0,.11,1.9,1.9,0,0,0-.12.36c0,.23-.17.44-.24.66s-.16.42-.23.63c-.25.68-.51,1.34-.81,2-.19.43-.39.85-.6,1.27a27.26,27.26,0,0,1-1.78,3c-.38.56-.78,1.1-1.2,1.63s-.81,1-1.24,1.49c-.59.65-1.2,1.29-1.84,1.91h0l-.17.17q-4,3.75-7.92,7.47h0l-.28.27h0a1.23,1.23,0,0,0-.36,1.2c.08.27.14.54.2.81.09.42.19.83.31,1.24.2.71.43,1.41.69,2.09a20.33,20.33,0,0,0,4.39,7.08,18.5,18.5,0,0,0,5.25,3.73,15.19,15.19,0,0,0,1.59.65l.52.16c.35.11.71.22,1.06.3s.43.07.64.11.64.12,1,.16l.69,0c.3,0,.6,0,.9,0s.63,0,.94-.06.47,0,.7-.05.66-.11,1-.17l.65-.12c.37-.09.73-.21,1.09-.32l.55-.16c.53-.19,1.06-.4,1.6-.65h0a8.8,8.8,0,0,0,2.73-2.14h0l.05-.06h0l.75-.85.45-.5a29.29,29.29,0,0,1,6.87-5.88,31.75,31.75,0,0,1,3.18-1.63c1.09-.49,2.19-.93,3.31-1.36a2.33,2.33,0,0,0,1-.73,2,2,0,0,0,.4-1.19c0-.54.05-1.08.07-1.62,0-1.07.07-2.15,0-3.22,0-.54,0-1.08,0-1.62h0s0-.09,0-.13a2.16,2.16,0,0,1,0-.36.86.86,0,0,1,.13-.37.7.7,0,0,1,.16-.19,1,1,0,0,1,.23-.14,1.26,1.26,0,0,1,.33-.13,1.57,1.57,0,0,0,1.23-1.87c0-.36,0-.73-.05-1.1h0c0-.82,0-1.65-.07-2.47h0a.68.68,0,0,1,.7-.73h5.74c1.08.08,2.26,0,3.45.06.39,0,.79,0,1.19,0,.12,0,.24,0,.36,0a3.49,3.49,0,0,0,.74-.09l.11,0a3,3,0,0,0,.67-.26h0a4.89,4.89,0,0,0,.6-.41l.08-.07a5.3,5.3,0,0,0,.53-.53l.21-.24a32.51,32.51,0,0,1,2.32-2.52l.12-.14.09-.11a.56.56,0,0,0,0-.12s0-.06,0-.09a.35.35,0,0,0,0-.13.64.64,0,0,1,0-.07,1.28,1.28,0,0,0-.2-.22q-3-2.82-5.89-5.66l-1.58-1.52a1.72,1.72,0,0,1-.4-.46c-.09-.2,0-.35.38-.71Z" />
    <path d="M90.06,173l-.37-.07-.17-.05A54.6,54.6,0,0,1,82.89,170q-2.13-1.11-4.15-2.41c-1.35-.86-2.66-1.79-3.94-2.77-.64-.5-1.27-1-1.89-1.53s-1-.88-1.55-1.33-1-.92-1.5-1.39-1-1-1.43-1.45-.91-1-1.35-1.55a.89.89,0,0,0-.18-.17.07.07,0,0,0-.06,0,.12.12,0,0,0-.1,0,.16.16,0,0,0-.11,0s0,0,0,0a.77.77,0,0,0-.16.19h0c-.09.13-.17.26-.27.39h0a32.63,32.63,0,0,0-2.58,4.36c-.25.5-.48,1-.7,1.52a30.05,30.05,0,0,0-1.19,3.38,29.32,29.32,0,0,0-.79,3.54c-.16,1-.29,2.06-.4,3.09a.71.71,0,0,0,0,.14c-.31,3.06-.43,6.14-.62,9.26,0,0,0,0,0,0a.57.57,0,0,1,0,.12s0,.08,0,.13a.11.11,0,0,1,0,0v.15a.22.22,0,0,0,0,.08.43.43,0,0,0,0,0l0,.07,0,0,.06,0,.06,0,.1,0h.31c2-.18,4-.29,6-.44,1-.08,2-.16,3-.27s2-.24,3-.41l1.29-.24,1.43-.31,1.1-.28,1.25-.36c.7-.23,1.4-.48,2.09-.76l.71-.29c.67-.29,1.34-.6,2-1a41.35,41.35,0,0,0,7.58-5.51l.23-.16.25-.17c.27-.16.49-.34.45-.59h0a.31.31,0,0,0,0-.12.52.52,0,0,0-.24-.15Z" />
    <path d="M131.27,66.24c.63-.32,1.27-.61,1.91-.87.49-.2,1-.38,1.47-.56a39.41,39.41,0,0,1,4.52-1.28c.45-.11.9-.19,1.35-.28l1.35-.26.23,0a.4.4,0,0,0,.2-.07.2.2,0,0,0,.06-.11.25.25,0,0,0,0-.13.32.32,0,0,0-.2-.1l-.21-.07h0l-.07,0-.93-.26c-.7-.18-1.39-.36-2.09-.51a45.52,45.52,0,0,0-6.15-.87c-1-.08-2.07-.12-3.12-.13H129l-.68,0h-.82l-.94.05-.8,0-1,.08-.78.08q-.48,0-1,.12l-.77.09-1,.16-.73.12-1,.2-.69.14-1,.23h0l-.09,0-.58.14c-.56.13-1.13.28-1.69.44a1,1,0,0,0-.72.72c-.06.2-.14.39-.22.59s-.11.35-.18.51-.18.39-.27.58-.15.33-.24.48a6.59,6.59,0,0,1-.34.57c-.09.14-.17.29-.27.44s-.33.45-.5.67-.14.18-.21.27c-.37.44-.75.85-1.14,1.26a46.51,46.51,0,0,1-3.76,3.4,1.78,1.78,0,0,0-.26.22.31.31,0,0,0-.09.18.58.58,0,0,0,0,.24h0q.54-.3,1.08-.54c1.08-.49,2.19-.85,3.28-1.25a43.42,43.42,0,0,1,10.44-2.33c.59-.06,1.19-.1,1.78-.14s1.2-.06,1.8-.07c.44,0,.88,0,1.32,0l.76,0c.31,0,.61,0,.91,0l.76,0,.91.07.75.07.92.11.73.09.93.14.71.11,1,.18.65.13c.36.07.72.16,1.07.24l.56.12,1.57.4h0l.49.13h.07l.22,0,.25,0h.09l.16,0h.12l.11,0,.06,0,.11,0,.18-.11.09-.06a2.09,2.09,0,0,0,.25-.26.54.54,0,0,1,.23-.15c.09-.05.19-.08.27-.13a.93.93,0,0,1,.2-.1.41.41,0,0,0,.11-.07s0,0,0,0a.19.19,0,0,0,0-.15c0-.17-.27-.17-.43-.21l-.9-.21c-.68-.17-1.36-.34-2-.48a64.32,64.32,0,0,0-9.05-1.13,5.39,5.39,0,0,1,1.13-.77Z" />
    <path d="M114.26,99.8a29.17,29.17,0,0,0-3,3.06,27.94,27.94,0,0,0-3,4.28,28.52,28.52,0,0,0-1.56,3.13h.12a.25.25,0,0,0,.15,0l0,0a.39.39,0,0,0,.1-.08l2.12-2q1.47-1.38,2.91-2.79a23.5,23.5,0,0,0,4.47-5.61l.16-.29a11.77,11.77,0,0,0,1-2.3c-.68.46-1.33.93-2,1.43S114.75,99.37,114.26,99.8Z" />
    <path d="M134.46,81.81a1.15,1.15,0,0,0,0-.21.08.08,0,0,0,0,0,.19.19,0,0,0,0-.09l0,0a.23.23,0,0,0-.1,0h0l-.22,0h0l-.68.14c-1,.2-2,.38-3,.65q-.41.1-.81.24a11.7,11.7,0,0,0-2.39,1c1,.22,1.94.71,2.91,1a26.83,26.83,0,0,1,2.91,1.11l.43.17.54.2.15,0,0,0h.22a.21.21,0,0,0,.11-.08v0a.32.32,0,0,0,0-.23,14.79,14.79,0,0,1,0-2.4C134.42,82.8,134.45,82.3,134.46,81.81Z" />
    <path d="M148,71.84c.72.7,1.43,1.4,2.19,2.06.43.37.88.73,1.35,1.07a.75.75,0,0,0,.2.1h0a.22.22,0,0,0,.11,0l.12,0,.06,0a.7.7,0,0,0,.17-.14h0c.43-.44.86-.88,1.33-1.28.24-.21.27-.35.13-.47l-.21-.13-.08,0q-.78-.37-1.56-.72c-1.1-.5-2.22-1-3.38-1.36l-.39-.12-.25-.08c-.37-.12-.73-.25-1.11-.35a.38.38,0,0,0,.11.41c.33.29.64.59,1,.89Z" />
  </g>
</svg>
