<svg id="图层_1" data-name="图层 1" xmlns="http://www.w3.org/2000/svg" viewBox="0 0 240 240">
  <g>
    <path d="M202.93,58,132,17a24.27,24.27,0,0,0-24.28,0L88.06,28.33,116.9,45l.52-.7.57,1.32,1.82,1.06,36.1,20.84,1.18-1.16.38-1.47a11.27,11.27,0,0,1,10.9-8.79,12.33,12.33,0,0,1,8.18,3.24l4.09,3.56a9.07,9.07,0,0,1,1,1L185.18,68a11.92,11.92,0,0,1,2.74,11.47A11.47,11.47,0,0,1,179.63,87l-.66.17a36.73,36.73,0,0,1,4.31,15.94,56.07,56.07,0,0,1,2.19,15.61l29.6-17.09V79A24.27,24.27,0,0,0,202.93,58Z"/>
    <polygon points="88.06 65 88.06 65 88.06 65 88.06 65"/>
    <path d="M52,131.14l-8-7.25,7.86-7.43a12.21,12.21,0,0,1,4.48-2.67V104.5A36.65,36.65,0,0,1,68,77.68a27.09,27.09,0,0,1,.45-3.35l2.71-13.51,12,6.77.2.12L88.06,65,56.3,46.67,36.7,58A24.29,24.29,0,0,0,24.55,79V161a24.29,24.29,0,0,0,12.14,21l1.28.74L56.3,193.33V156.67h0v-21.8l-1.38-1.18C54,132.89,53,132.07,52,131.14Z"/>
    <path d="M183.32,156.67h0L167.12,166a54.06,54.06,0,0,1-10.52,8.12,10,10,0,0,1-4.81,1.34,47.12,47.12,0,0,1-6.51,3.15l-7.14,4.12a36.65,36.65,0,0,1-36.66,0h0L95,179a32.73,32.73,0,0,1-6.91,3v29.71l8.51,4.91,11.1,6.41A24.27,24.27,0,0,0,132,223l71-41a24.27,24.27,0,0,0,12.14-21V138.33h0Z"/>
    <path d="M92.13,169c1.05-.72,2.13-1.54,3.29-2.51.54-.45,1.09-.93,1.67-1.44a40.19,40.19,0,0,1-4.18-1.55c-.78-.34-1.55-.7-2.3-1.08a45.39,45.39,0,0,1-6.5-4,56.85,56.85,0,0,1-7.82-7.07A30.2,30.2,0,0,0,73.92,155c-.19.35-.36.7-.53,1s-.41.9-.59,1.35a23.19,23.19,0,0,0-.8,2.44,25.17,25.17,0,0,0-.57,2.59c-.14.79-.25,1.61-.34,2.47,0,.32-.07.65-.11,1-.12,1.34-.22,2.79-.31,4.37,0,.4,0,.8-.07,1.22,0,.83-.08,1.69-.13,2.6h0c4.07-.21,7.3-.36,10.1-.73.56-.07,1.1-.15,1.63-.24a23.55,23.55,0,0,0,7.27-2.44A28.25,28.25,0,0,0,92.13,169Z"/>
    <path d="M140.11,70.85l-.4-.12-.5-.15-.31-.09-.52-.13-.78-.18-.58-.11-.79-.15-.63-.09-.8-.11-.38,0-.29,0-.82-.08-.71,0-.83,0-.72,0h-2.39l-.85,0-.72,0-.87.07-.71.07-.88.1-.7.09L123,70l-.67.11-1,.19-.6.13c-.35.07-.7.16-1,.25l-.5.12c-.5.14-1,.28-1.5.44a17.76,17.76,0,0,1-1,2.37,8.76,8.76,0,0,1-.68,1.17,4.81,4.81,0,0,1-.77.92c-1.43,1.29-2.76,2.43-3.94,3.53.62-.28,1.24-.53,1.86-.77l.6-.22,1.27-.44.72-.22,1.17-.35.75-.19,1.17-.28.75-.16,1.21-.21.71-.12c.46-.07.91-.12,1.36-.17l.57-.07q1-.09,1.92-.15h.31l1.63,0h.4c.87,0,1.74,0,2.62.09l.26,0c.78.06,1.57.14,2.36.24l.35,0,.51.07c.89.13,1.78.29,2.66.47l.47.1c.92.2,1.84.42,2.76.68l1.38-1.14a60.52,60.52,0,0,0-6.89-1.28c-1.21-.16-2.45-.3-3.72-.4,2.26-1.76,7.21-2.69,10.66-3.48C140.88,71.11,140.5,71,140.11,70.85Z"/>
    <path d="M73.15,140l.39.55.72,1c.37.52.75,1,1.13,1.53.51.67,1,1.32,1.55,2l.36.43c.52.63,1,1.24,1.57,1.83l.21.23c.49.54,1,1.06,1.47,1.57l.33.35c.54.55,1.09,1.08,1.64,1.6l.32.29c.5.47,1,.92,1.52,1.35l.27.23c.56.48,1.14.93,1.71,1.38l.39.29c.57.42,1.14.83,1.72,1.22,0,0,0,0,.08.06.6.41,1.21.79,1.82,1.16l.42.24c.61.36,1.23.7,1.85,1l.19.09c.58.29,1.17.57,1.76.83l.41.18q.94.41,1.92.75l.35.12c.58.21,1.17.39,1.77.56l.35.11c.66.18,1.33.34,2,.49l.45.08.66.14,1.27.2.2,0c.7.09,1.4.16,2.11.21l.5,0h.06c.7,0,1.4.07,2.11.07h.12c.81,0,1.64,0,2.47-.09l.35,0c.82-.06,1.66-.15,2.5-.27l.48-.07c.84-.12,1.69-.27,2.54-.45l.42-.09c.9-.2,1.81-.41,2.73-.67a13.55,13.55,0,0,0,2.68-1.1,21.31,21.31,0,0,0,2.78-1.79c.62-.46,1.23-1,1.84-1.49a35.17,35.17,0,0,0,4.29-4.56,32.85,32.85,0,0,0,2.82-4.17c.4-.71.77-1.43,1.09-2.15A20.55,20.55,0,0,0,137,142a14.25,14.25,0,0,0,.38-2.06,10.08,10.08,0,0,0,0-2.05,6.92,6.92,0,0,0-2.36-4.76c-.41.23-.83.45-1.25.65l-.43.2-.84.37-.5.19-.76.27-.54.17-.72.21-.17,0c-.13,0-.26.06-.39.09s-.46.11-.69.15l-.57.1-.68.1-.57.06-.67.05-.57,0h-.59c-.55,0-1.1,0-1.64-.09l-.29,0c-.47-.05-.94-.13-1.41-.22l-.34-.07c-.53-.11-1.05-.25-1.56-.41l-.3-.1c-.44-.15-.87-.31-1.3-.49l-.31-.13c-.49-.21-1-.45-1.43-.7l-.3-.18c-.4-.23-.79-.47-1.18-.73l-.26-.17c-.43-.31-.86-.64-1.27-1l-.28-.24c-.36-.31-.7-.63-1-1l-.2-.19c-.38-.39-.74-.8-1.09-1.22l-.24-.31c-.3-.38-.6-.78-.88-1.19l-.13-.19q-.47-.7-.87-1.44l-.19-.36c-.24-.46-.47-.93-.68-1.41l-.08-.17c-.22-.53-.42-1.07-.61-1.63,0-.13-.08-.27-.13-.4-.16-.54-.32-1.08-.44-1.64l0-.11c-.13-.58-.23-1.18-.32-1.79,0-.15,0-.3,0-.45-.08-.61-.14-1.24-.16-1.88-.42-11,11.51-22.08,23.1-23.5l-1.2-.37-.77-.23-.29-.08c-.29-.09-.58-.18-.87-.25l-.14,0-.68-.18-.24-.05-.65-.14-.16,0-.8-.13-.2,0c-.21,0-.43,0-.65-.06l-.25,0-.85,0h0l-.9,0-.3,0-.7,0-.37,0-.68.08h-.08l-.37,0-1.23.18A51,51,0,0,1,125,86a27.09,27.09,0,0,1,3.57-1.41,35.89,35.89,0,0,1,7.13-1.39,4.6,4.6,0,0,1,.49-.75,12.37,12.37,0,0,1,1.93-1.82c-.78-.2-1.58-.38-2.4-.55l-.16,0c-.78-.15-1.57-.29-2.38-.4l-.25,0c-.79-.1-1.6-.19-2.42-.25h-.29q-1.23-.09-2.52-.09H127l-.95,0h-.27l-1.21.08-.24,0-1,.11-.34,0c-.37,0-.73.09-1.1.15l-.15,0-1.26.23-.31.06-1,.22-.33.08-1.29.34h0l-1.25.39-.34.12c-.35.11-.7.24-1,.37l-.28.1c-.43.17-.86.34-1.3.53l-.23.1-1.08.49-.36.18q-.57.27-1.14.57l-.18.1c-.44.23-.87.48-1.31.73l-.31.19-1,.64-.35.22q-.66.44-1.32.9h0l-.89.67-.39.28-.36.28-1,.83-.31.26c-.43.36-.86.74-1.29,1.13l-.24.22-1.06,1-.38.37c-.35.36-.71.72-1.06,1.1l-.23.23c-.42.45-.84.92-1.26,1.4l-.33.38c-.32.37-.65.76-1,1.16l-.36.44c-.42.52-.84,1.05-1.25,1.6.55-1.22,1.08-2.35,1.61-3.41.39-.77.77-1.49,1.16-2.2.25-.45.5-.89.76-1.33s.69-1.15,1-1.71c.53-.8,1.07-1.59,1.66-2.38s1.2-1.59,1.87-2.4l.06-.06c.43-.53.89-1.06,1.37-1.6,1-1.08,2-2.2,3.15-3.4s2.45-2.5,3.88-3.92l2.06-2h0a7.61,7.61,0,0,0,.75-.88h0a7,7,0,0,0,.61-1l.06-.12c.08-.18.16-.36.23-.54a8.91,8.91,0,0,0,.48-5.78c0-.54-.12-1.06-.18-1.54a18.6,18.6,0,0,1-5.45,5.56c-.34.24-.69.47-1,.7l0,0-.06,0c-.61.39-1.26.77-1.93,1.14s-1.13.61-1.72.91l-.23.11h0c-1,.51-2,1-3,1.45h0L98.6,74.58c-.19.08-.37.18-.56.27-.37.18-.74.35-1.11.54l-.37.17a.61.61,0,0,1-.14.07c-.27.14-.53.31-.79.46-.44.24-.89.48-1.32.74s-.67.44-1,.67h0l-.5.33-.54.35-.32.25-.08.06c-.53.38-1.05.77-1.56,1.18h0c-.22.18-.42.37-.64.56-.52.44-1,.89-1.53,1.36s-1,1-1.46,1.45h0c-.22.23-.43.48-.64.72s-.55.61-.82.93c-.06.07-.14.14-.2.22-.47.56-.91,1.15-1.35,1.74l-.18.24h0a.76.76,0,0,0,.08-.41,4.18,4.18,0,0,0-.19-1.06c-.07-.28-.16-.57-.26-.88-.46-1.38-1.12-2.91-1.31-3.36a.37.37,0,0,1,0-.11c-.05-.12-.11-.23-.16-.35s-.11-.25-.17-.37l-.06-.12c-.18-.37-.36-.75-.57-1.11a12.11,12.11,0,0,0-.88-1.32,6.79,6.79,0,0,0-.86-.91c-.3-.31-.62-.62-1-.92,0,.24.07.48.1.73h0a18.9,18.9,0,0,0-.28,2.51c0,.49,0,1,0,1.49,0,1,0,2,0,3a28.91,28.91,0,0,1-.31,4.48,68.22,68.22,0,0,1-1.59,7.21h0c-.07.19-.12.4-.19.59h0v0c-.08.19-.16.39-.24.61a2.33,2.33,0,0,0-.11.28c-.07.15-.13.32-.2.49s0,.09-.05.13-.11.26-.16.4-.24.57-.38.91-.29.71-.46,1.13-.35.87-.56,1.39-.43,1.07-.68,1.69l-.83,2.06a19.5,19.5,0,0,0-.62,1.91c-.1.38-.2.77-.29,1.17s-.22,1.06-.31,1.61a45.68,45.68,0,0,0-.58,6.77c0,.61,0,1.21,0,1.79a.76.76,0,0,1,0,.15c0,.35,0,.7,0,1s0,.41,0,.62h0c0,.73.1,1.44.18,2.1a19.36,19.36,0,0,0,.64,3.23l.06.16c.06.17.12.34.19.49a.56.56,0,0,0,0,.12h0a2.19,2.19,0,0,0-.3-.47l-.1-.12a3.23,3.23,0,0,0-.37-.37l-.09-.07a5.19,5.19,0,0,0-.57-.4l-.16-.1-.55-.3-.17-.08c-.24-.12-.5-.23-.76-.33l-.16-.06-.7-.24-.23-.07-.89-.25h0l-.87-.19-.26,0c-.26,0-.52-.09-.79-.12l-.15,0q-.45-.06-.9-.09l-.23,0-.71,0h-.21c-.27,0-.54,0-.8,0l-.15,0a6.07,6.07,0,0,0-.77.08h0a5.65,5.65,0,0,0-.65.15l-.12,0-.09,0h-.06a12.37,12.37,0,0,0-1.44.41c.4.21.8.44,1.19.67h0l.55.49c.8.69,1.6,1.36,2.39,2l1.45,1.26a32.71,32.71,0,0,1,4.07,4.29h0a.76.76,0,0,0,.11.14c.58.77,1.15,1.56,1.71,2.35l.48.67,1.61,2.33C72.19,138.57,72.67,139.26,73.15,140Z"/>
    <polygon points="78.09 75.97 78.09 75.97 78.09 75.97 78.09 75.97"/>
    <path d="M173,115.6c.23.27.45.56.66.85.43.59.84,1.21,1.24,1.88.19.34.39.68.58,1a45.5,45.5,0,0,0-2.54-15.66,40.54,40.54,0,0,0-2.62-5.9l-.18-.33a44.48,44.48,0,0,0-2.52-4l-.2-.27c-.35-.49-.72-1-1.1-1.44l-1,1-2.55,2.6,2.7,2.64,3.87,3.78-4.9,5.92a10.61,10.61,0,0,1-1.69,1.68,4.67,4.67,0,0,1-.79.52,3.49,3.49,0,0,1-.39.19,4.75,4.75,0,0,1-.8.28,7.34,7.34,0,0,1-.84.16c-.29,0-.59.06-.91.07l-1,0h-.55l-4.15,0a5.31,5.31,0,0,1-1.7,3.63l-.06,3a8.27,8.27,0,0,1-.12,1.21,7.87,7.87,0,0,1-.31,1.18,4.89,4.89,0,0,1-.3.75,6.52,6.52,0,0,1-.83,1.36,6.65,6.65,0,0,1-1.12,1.13,6.19,6.19,0,0,1-1.93,1h0a17.08,17.08,0,0,0-4.7,2.23,23.14,23.14,0,0,0-3.17,2.55c-.32.3-.63.62-1,.94a11.22,11.22,0,0,1,.92.9,10.16,10.16,0,0,1,.79,1,11.84,11.84,0,0,1,.86,1.39c.13.24.24.49.35.74s.14.34.2.51a9.55,9.55,0,0,1,.34,1c1,3.43.38,7.28-1.19,11.06-.18.45-.39.9-.6,1.35a36.56,36.56,0,0,1-4.86,7.51c-.32.38-.64.76-1,1.12l2.08-.89,2.07-1h0c-.08.13-.18.26-.27.4a22.2,22.2,0,0,1-1.47,2c-4.67,5.65-13.78,11.32-28.75,13.29,1,.27,2,.5,3.06.72l.64.14c1,.21,2,.4,3,.56l.5.07c.15,0,.31,0,.46.06.74.12,1.49.22,2.23.31l.47.05c1,.11,1.92.18,2.88.24l.63,0c1,0,1.94.08,2.89.08h.11c.92,0,1.84,0,2.74-.08l.75-.05c.84-.05,1.67-.12,2.5-.22l.31,0c.91-.11,1.81-.26,2.7-.42l.68-.13c.75-.15,1.48-.31,2.21-.49l.5-.12q1.27-.35,2.52-.75l.59-.21c.68-.24,1.36-.49,2-.76l.56-.23c.79-.34,1.58-.7,2.34-1.09l.46-.24c.63-.34,1.26-.69,1.87-1.07l.57-.34c.72-.46,1.44-.93,2.13-1.44l.27-.21c.61-.46,1.2-.94,1.79-1.44l.52-.46c.65-.58,1.29-1.18,1.9-1.81h0c-.22.39-.44.78-.67,1.17-.67,1.19-1.38,2.39-2.14,3.49,8-4.63,17.46-14.59,21.18-26.54a38.56,38.56,0,0,0,1-3.84,34.42,34.42,0,0,0,.54-3.95,31.76,31.76,0,0,0-4.22-18.47q.39.31.78.66A20.09,20.09,0,0,1,173,115.6Z"/>
    <path d="M178.07,76.91a1,1,0,0,0,.32-1,3.09,3.09,0,0,0-.76-1.34l-3.55-4.09L170,66.88a4.58,4.58,0,0,0-.45-.35l-.14-.08-.29-.17-.16-.06-.25-.09-.17,0-.16,0h-.05a.93.93,0,0,0-.22,0,.44.44,0,0,0-.15,0,.86.86,0,0,0-.2.13l-.13.1a1.56,1.56,0,0,0-.17.25,1.1,1.1,0,0,0-.09.14,2.19,2.19,0,0,0-.2.55l-1.07,4.17L164.9,72.7,149.3,88l-.27.27-.48-.5L147,86.21l-.89-.91-3.76-3.85-2.65,2.19a3.77,3.77,0,0,0-.74.77,2.73,2.73,0,0,0-.37.77,4.65,4.65,0,0,0-.13.88c0,.33,0,.68,0,1.09v.31l0,8a.35.35,0,0,1-.34.35h-3.76c-.5,0-.74.09-.91.64l-.32,1-5.84.13a2.89,2.89,0,0,0-1.8.6,2,2,0,0,0-.31.34,1.46,1.46,0,0,0-.18.38c-.12.4-.27.82-.43,1.25a30.32,30.32,0,0,1-2.32,4.58l-.39.6c-.26.4-.51.77-.77,1.13s-.51.67-.76,1-.24.28-.36.41l-.34.36-8.81,8.52c0,.42.11.87.19,1.33a17.17,17.17,0,0,0,5.35,9.71c.32.29.65.56,1,.81l.33.24c.22.17.44.33.67.48l.39.24.63.37.4.2.65.31.39.16c.24.09.48.18.72.25l.32.11c.35.1.7.19,1,.26l.1,0c.32.06.64.1,1,.14l.36,0q.36,0,.72,0h.31a12.1,12.1,0,0,0,1.47-.1h0a12,12,0,0,0,1.43-.28h0l.27-.07a14.79,14.79,0,0,0,1.43-.45l.28-.11a14.78,14.78,0,0,0,1.48-.65h0l4.63-4.79a14.49,14.49,0,0,1,1.23-1.08c.34-.26.71-.53,1.1-.8l1.14-.74c.61-.38,1.27-.75,1.93-1.1l.66-.34c.45-.22.89-.42,1.33-.61a18.69,18.69,0,0,1,1.9-.7,2.29,2.29,0,0,0,1.32-2.28l.13-5.84,1-.33c.41-.13.56-.29.61-.58a1.55,1.55,0,0,0,0-.33v-3.76a.36.36,0,0,1,.36-.34l8.27,0a7.57,7.57,0,0,0,2-.15,2.7,2.7,0,0,0,1.15-.69,4,4,0,0,0,.39-.42l2.19-2.65-3.46-3.38-3.38-3.29,4.09-4.16,8.92-9.08,3.47-3.54.28-.28,4.17-1.07A2.08,2.08,0,0,0,178.07,76.91Z"/>
  </g>
</svg>
