<svg id="Layer_2_00000154420036756167635810000014143563354178875776_" enable-background="new 0 0 512 512" viewBox="0 0 512 512" xmlns="http://www.w3.org/2000/svg"><g id="Icon"><g id="_51"><g><path d="m237.1 240.7h37.8v86h-37.8z" fill="#ffb000"/><path d="m213.3 363.5c0-23.6 19.1-42.9 42.7-42.9 23.6 0 42.7 19.3 42.7 42.9z" fill="#ffce00"/><path d="m196 363.5h120c11 0 20 9 20 20v35h-160v-35c0-11 9-20 20-20z" fill="#4d7382"/><path d="m163.5 418.5h185c15.2 0 27.5 12.3 27.5 27.5 0 15.2-12.3 27.5-27.5 27.5h-185c-15.2 0-27.5-12.3-27.5-27.5 0-15.2 12.3-27.5 27.5-27.5z" fill="#ffce00"/></g><g fill="#ffce00"><g><g><path d="m296.5 354.9c-2.5 0-4.7-1.9-5-4.5-.3-2.8 1.7-5.2 4.5-5.5.6-.1 37.7-4.3 73.1-32.5 46.9-37.4 69.8-100.3 66-181.7-.1-2.8 2-5.1 4.8-5.2 2.7-.2 5.1 2 5.2 4.8 2.1 47.3-4.2 88.5-18.9 122.5-11.9 27.4-29.1 50.2-51.3 67.8-37.8 29.9-76.3 34.2-77.9 34.3-.1 0-.3 0-.5 0z"/><path d="m478.7 188.7c-17.6 14.6-42.5 13.5-42.5 13.5s3.6-24.7 21.2-39.3 42.5-13.5 42.5-13.5-3.6 24.7-21.2 39.3z"/><path d="m426.1 158.7c13.1 18.7 10 43.5 10 43.5s-24.3-5.6-37.4-24.3-10-43.5-10-43.5 24.3 5.6 37.4 24.3z"/><path d="m412.8 212.8c11.5 19.8 6.3 44.2 6.3 44.2s-23.8-7.7-35.2-27.4c-11.5-19.8-6.3-44.2-6.3-44.2s23.8 7.6 35.2 27.4z"/><path d="m390.8 263.6c4.6 22.4-8.1 43.9-8.1 43.9s-20.1-14.8-24.6-37.2 8.1-43.9 8.1-43.9 20 14.8 24.6 37.2z"/><path d="m355.7 303.9c-4.7 22.4-24.9 37.1-24.9 37.1s-12.6-21.6-7.9-43.9 24.9-37.1 24.9-37.1 12.6 21.5 7.9 43.9z"/><path d="m462.6 247.4c-18.8 12.9-43.6 9.6-43.6 9.6s5.8-24.3 24.7-37.2 43.6-9.6 43.6-9.6-5.8 24.3-24.7 37.2z"/><path d="m427.4 307.9c-21.3 8.3-44.6-.5-44.6-.5s11.2-22.3 32.5-30.6 44.6.5 44.6.5-11.2 22.3-32.5 30.6z"/><path d="m371.7 358.6c-22.9-.6-40.9-17.8-40.9-17.8s19-16.2 41.8-15.6 40.9 17.8 40.9 17.8-19 16.2-41.8 15.6z"/><path d="m457.3 118.4c0 22.9-16.7 41.4-16.7 41.4s-16.7-18.5-16.7-41.4 16.6-41.4 16.6-41.4 16.8 18.5 16.8 41.4z"/></g><g><path d="m215.5 354.9c2.5 0 4.7-1.9 5-4.5.3-2.8-1.7-5.2-4.5-5.5-.6-.1-37.7-4.3-73.1-32.5-46.9-37.4-69.8-100.3-66-181.7.1-2.8-2-5.1-4.8-5.2-2.7-.2-5.1 2-5.2 4.8-2.2 47.3 4.2 88.5 18.9 122.5 11.9 27.4 29.1 50.2 51.3 67.8 37.8 29.9 76.3 34.2 77.9 34.3z"/><path d="m33.3 188.7c17.6 14.6 42.6 13.5 42.6 13.5s-3.6-24.7-21.2-39.3-42.6-13.5-42.6-13.5 3.6 24.7 21.2 39.3z"/><path d="m85.9 158.7c-13.1 18.7-10 43.5-10 43.5s24.3-5.6 37.4-24.3 10-43.5 10-43.5-24.3 5.6-37.4 24.3z"/><path d="m99.2 212.8c-11.4 19.8-6.3 44.2-6.3 44.2s23.8-7.7 35.2-27.4 6.3-44.2 6.3-44.2-23.8 7.6-35.2 27.4z"/><path d="m121.2 263.6c-4.6 22.4 8.1 43.9 8.1 43.9s20.1-14.8 24.7-37.2-8.1-43.9-8.1-43.9-20.1 14.8-24.7 37.2z"/><path d="m156.3 303.9c4.7 22.4 24.9 37.1 24.9 37.1s12.6-21.6 7.9-43.9-24.9-37.1-24.9-37.1-12.6 21.5-7.9 43.9z"/><path d="m49.4 247.4c18.8 12.9 43.6 9.6 43.6 9.6s-5.8-24.3-24.7-37.2-43.6-9.6-43.6-9.6 5.8 24.3 24.7 37.2z"/><path d="m84.6 307.9c21.3 8.3 44.6-.5 44.6-.5s-11.2-22.3-32.4-30.6c-21.3-8.3-44.6.5-44.6.5s11.1 22.3 32.4 30.6z"/><path d="m140.3 358.6c22.9-.6 40.9-17.8 40.9-17.8s-19-16.2-41.8-15.6-40.9 17.8-40.9 17.8 19 16.2 41.8 15.6z"/><path d="m54.7 118.4c0 22.9 16.7 41.4 16.7 41.4s16.7-18.5 16.7-41.4-16.7-41.4-16.7-41.4-16.7 18.5-16.7 41.4z"/></g></g><path d="m280.8 53.5 22.8 43.5 48.5 8.2c22.3 3.8 31.2 31.1 15.4 47.2l-34.4 35.2 7.1 48.6c3.3 22.4-19.9 39.2-40.2 29.2l-44-21.7-44 21.8c-20.3 10-43.5-6.8-40.2-29.2l7.1-48.6-34.4-35.2c-15.8-16.2-6.9-43.4 15.4-47.2l48.5-8.2 22.8-43.5c10.5-20.1 39.1-20.1 49.6-.1z"/></g></g></g></svg>